<?xml version="1.0" standalone="no"?>
<!DOCTYPE svg PUBLIC "-//W3C//DTD SVG 20010904//EN"
 "http://www.w3.org/TR/2001/REC-SVG-20010904/DTD/svg10.dtd">
<svg version="1.0" xmlns="http://www.w3.org/2000/svg"
 width="500.000000pt" height="500.000000pt" viewBox="0 0 500.000000 500.000000"
 preserveAspectRatio="xMidYMid meet">

<g transform="translate(0.000000,500.000000) scale(0.100000,-0.100000)"
fill="#000000" stroke="none">
<path d="M2268 4139 c-30 -11 -36 -36 -17 -71 15 -28 7 -31 -35 -14 -54 22
-146 30 -176 14 -30 -16 -35 -34 -21 -85 17 -60 27 -70 51 -55 52 32 151 2
208 -63 l37 -42 78 5 c67 4 77 7 77 23 0 26 -63 199 -91 251 -26 47 -57 57
-111 37z"/>
<path d="M2712 4123 c-43 -63 -90 -216 -107 -348 -10 -79 -15 -92 -41 -104
l-24 -11 0 -376 0 -375 31 24 31 24 2 119 c3 129 21 194 70 258 51 68 170 98
263 67 38 -13 49 -12 110 6 37 12 89 26 115 33 l48 13 -23 40 c-37 66 -91 120
-161 161 -59 35 -66 42 -66 70 1 91 117 216 202 216 10 0 32 -10 48 -22 26
-19 33 -20 54 -9 38 21 46 71 20 126 -14 30 -23 35 -72 46 -196 40 -343 -77
-406 -326 -11 -40 -18 -51 -36 -53 -22 -4 -23 -3 -16 70 9 92 32 179 74 284
22 54 20 64 -15 83 -39 20 -80 14 -101 -16z m38 -35 c-12 -18 -28 -48 -36 -65
-17 -40 -27 -43 -18 -5 10 42 46 102 62 102 10 0 9 -8 -8 -32z m384 -37 c3 -5
-11 -12 -31 -16 -40 -7 -68 -23 -130 -73 -47 -37 -53 -35 -23 8 40 57 166 112
184 81z"/>
<path d="M1513 3746 c-57 -27 -92 -70 -118 -148 -14 -42 -15 -136 -13 -800 l3
-753 24 -52 c21 -48 49 -79 151 -168 182 -159 337 -300 549 -501 47 -45 104
-96 126 -115 21 -19 55 -49 75 -67 34 -33 119 -82 140 -82 7 0 10 429 10 1355
l0 1355 -447 0 -448 0 -52 -24z m887 -302 c0 -88 -4 -164 -10 -175 -10 -18
-25 -19 -389 -19 l-378 0 -27 25 c-26 24 -26 26 -26 154 0 187 -42 171 441
171 l389 0 0 -156z m-506 -370 c13 -12 16 -40 16 -143 0 -85 -4 -131 -12 -139
-8 -8 -54 -12 -142 -12 -171 0 -166 -5 -166 156 0 157 -4 154 167 154 97 0
125 -3 137 -16z m436 -4 c18 -18 20 -33 20 -137 0 -158 5 -153 -165 -153 -172
0 -167 -5 -163 161 3 120 4 124 28 136 16 8 68 13 143 13 104 0 119 -2 137
-20z m-438 -387 c15 -14 18 -33 18 -136 0 -161 4 -157 -155 -157 -166 0 -165
-1 -165 160 0 94 3 122 16 134 23 24 259 23 286 -1z m438 -3 c18 -18 20 -33
20 -132 0 -101 -2 -114 -22 -135 -20 -21 -29 -23 -138 -23 -104 0 -120 2 -144
21 -25 20 -26 23 -26 139 0 153 -3 150 167 150 110 0 125 -2 143 -20z m-442
-376 c21 -14 22 -22 22 -143 0 -85 -4 -131 -12 -139 -8 -8 -54 -12 -142 -12
-171 0 -166 -5 -166 156 0 157 -3 154 160 154 88 0 121 -4 138 -16z m442 -4
c18 -18 20 -33 20 -139 0 -154 3 -151 -169 -151 -165 0 -161 -4 -161 152 0
160 -2 158 165 158 112 0 127 -2 145 -20z m-442 -386 c21 -14 22 -23 22 -134
0 -126 -4 -150 -26 -150 -8 0 -51 37 -96 83 -46 46 -109 105 -141 131 -55 46
-57 50 -41 67 15 17 33 19 138 19 94 0 127 -4 144 -16z m441 -10 c20 -25 21
-39 21 -268 -1 -177 -4 -247 -14 -264 -15 -28 -64 -62 -88 -62 -22 0 -181 141
-208 185 -18 29 -20 49 -20 214 0 232 -8 221 164 221 123 0 125 0 145 -26z"/>
<path d="M1703 3013 c-26 -10 -12 -23 26 -23 44 0 71 8 71 21 0 9 -76 11 -97
2z"/>
<path d="M1680 2935 c-7 -8 -9 -19 -5 -25 8 -13 132 -13 141 1 10 18 -8 26
-68 32 -41 4 -60 2 -68 -8z"/>
<path d="M2154 3020 c-29 -11 -39 -29 -25 -43 7 -7 16 -6 30 7 24 21 54 14 49
-11 -2 -11 -14 -19 -31 -21 -33 -4 -37 -32 -4 -32 31 0 51 -15 44 -34 -8 -19
-40 -21 -67 -4 -22 14 -35 6 -26 -17 8 -21 52 -36 82 -29 14 4 33 18 42 31 15
24 15 28 -1 55 -13 23 -14 33 -4 48 9 16 9 22 -3 34 -20 20 -60 27 -86 16z"/>
<path d="M1749 2628 c-15 -13 -89 -114 -89 -122 0 -3 21 -6 48 -8 40 -3 47 -6
50 -25 4 -27 32 -20 32 8 0 10 7 19 15 19 8 0 15 7 15 15 0 8 -7 15 -14 15
-11 0 -16 15 -18 52 -3 54 -14 67 -39 46z m1 -68 c0 -24 -4 -30 -21 -30 -20 0
-20 1 -2 30 9 17 19 30 20 30 2 0 3 -13 3 -30z"/>
<path d="M2123 2615 c-8 -24 4 -30 31 -15 27 14 60 7 54 -12 -3 -7 -15 -15
-29 -18 -34 -8 -30 -34 6 -40 19 -3 31 -12 33 -24 4 -17 -1 -18 -47 -12 -41 5
-51 4 -51 -8 0 -18 22 -26 71 -26 30 0 42 5 55 26 16 24 16 26 -5 55 l-22 30
22 18 c33 27 16 41 -52 41 -45 0 -61 -4 -66 -15z"/>
<path d="M1696 2234 c-12 -12 -14 -20 -7 -27 8 -8 15 -7 23 1 7 7 23 12 36 12
31 0 26 -34 -6 -38 -32 -5 -30 -42 3 -42 18 0 25 -5 25 -20 0 -23 -29 -27 -60
-8 -24 15 -38 3 -24 -20 17 -26 88 -28 113 -3 25 25 26 44 6 65 -13 13 -13 19
-3 36 19 31 -1 54 -49 58 -28 2 -46 -2 -57 -14z"/>
<path d="M2106 2242 c-3 -5 9 -25 26 -46 l31 -37 -32 -33 c-41 -42 -42 -62 -1
-41 17 9 30 19 30 24 0 24 33 18 60 -12 21 -24 32 -29 40 -21 9 9 4 21 -20 48
l-32 36 31 39 c40 50 22 66 -24 21 l-33 -32 -28 31 c-28 32 -39 37 -48 23z"/>
<path d="M1732 1813 c-27 -11 2 -23 54 -23 41 0 54 4 54 15 0 11 -12 15 -47
14 -27 0 -54 -3 -61 -6z"/>
<path d="M2170 1721 c0 -28 -3 -31 -30 -31 -20 0 -30 -5 -30 -15 0 -9 9 -15
24 -15 19 0 26 -7 31 -30 8 -38 33 -39 37 -2 2 21 9 28 31 30 38 5 36 32 -2
32 -25 0 -30 5 -33 27 -4 39 -28 42 -28 4z"/>
<path d="M3528 3495 c-22 -15 -86 -38 -155 -55 -123 -32 -127 -33 -258 -77
-70 -24 -96 -27 -212 -27 -130 -1 -132 -1 -161 -29 -16 -15 -35 -39 -42 -52
-11 -21 -9 -26 22 -58 20 -20 38 -50 42 -69 15 -83 -60 -210 -164 -274 l-60
-37 0 -113 0 -114 39 0 c28 0 45 7 65 26 34 35 35 64 1 64 -31 0 -31 7 -2 35
12 12 35 36 51 54 35 39 44 34 22 -13 -9 -19 -16 -51 -16 -71 l0 -37 53 6 c58
8 87 1 87 -19 0 -8 -8 -11 -21 -8 -30 8 -126 -17 -145 -38 -15 -16 -12 -22 45
-77 34 -33 61 -67 61 -75 0 -9 -22 6 -53 37 -29 29 -63 59 -76 66 l-24 12 7
-53 c3 -30 9 -71 12 -91 3 -21 2 -38 -3 -38 -8 0 -32 71 -52 155 -4 21 -14 31
-29 33 l-22 3 0 -543 0 -543 39 45 c21 25 53 61 70 80 57 64 131 178 131 202
0 33 23 112 53 187 l27 63 -43 -6 c-57 -9 -83 -30 -131 -107 -85 -134 -139
-196 -120 -136 10 33 28 66 68 126 43 63 48 91 14 69 -35 -22 -57 -28 -63 -18
-4 6 6 15 22 21 47 17 93 53 93 72 0 14 -9 17 -47 18 -27 1 -39 3 -28 6 45 10
47 12 31 29 -9 8 -16 22 -16 30 0 17 5 18 22 1 7 -7 34 -26 60 -41 44 -26 51
-27 85 -15 58 18 78 35 106 87 58 107 84 233 62 297 -19 57 -19 117 -1 220 38
216 128 361 261 425 65 31 176 60 308 81 52 8 81 17 86 28 5 9 11 55 15 104 6
71 4 87 -7 87 -30 0 -50 -93 -25 -118 6 -6 9 -15 5 -19 -12 -11 -36 30 -37 63
0 16 9 49 21 73 11 23 19 52 17 64 -4 32 -45 33 -90 2z m-18 -74 c0 -11 -26
-19 -150 -51 -47 -12 -136 -37 -198 -56 -141 -44 -212 -56 -284 -48 -81 9 -72
24 15 24 76 0 160 17 267 52 87 29 299 85 328 87 12 0 22 -3 22 -8z m-662
-331 c-5 -50 -62 -180 -79 -180 -12 0 -13 -2 21 65 16 33 30 67 30 75 0 23 20
90 27 90 3 0 3 -22 1 -50z m27 -545 c50 -24 82 -44 73 -44 -25 -1 -138 46
-168 69 -42 33 -1 22 95 -25z"/>
<path d="M3680 3190 c-36 -26 -107 -48 -243 -75 -194 -38 -268 -88 -331 -220
-40 -85 -70 -165 -63 -171 2 -3 21 5 41 17 27 16 45 20 71 15 32 -6 35 -5 35
17 0 29 15 43 55 50 17 3 40 8 52 12 18 6 25 1 39 -27 17 -34 120 -161 135
-166 5 -2 10 7 10 20 1 13 4 75 8 138 l6 115 37 3 c33 3 44 -3 90 -46 58 -54
78 -56 78 -11 0 34 -13 64 -43 97 l-20 22 20 0 c11 0 37 -7 58 -16 54 -22 65
-14 65 49 0 64 -9 74 -69 79 l-43 3 21 24 c45 51 37 105 -9 71z"/>
<path d="M3236 2758 c-9 -12 -16 -28 -16 -35 0 -8 -13 -13 -36 -13 -49 0 -96
-24 -117 -59 -19 -33 -20 -40 -8 -60 8 -12 12 -12 26 3 18 17 54 19 58 2 1 -6
-13 -14 -30 -18 -45 -12 -43 -40 7 -115 57 -86 102 -114 195 -123 50 -5 82
-13 95 -25 23 -21 23 -21 45 83 23 114 20 152 -17 203 -17 24 -34 46 -37 49
-4 3 -31 33 -60 68 -58 66 -81 75 -105 40z m-67 -254 c23 -39 23 -48 -2 -39
-14 6 -27 34 -27 63 0 20 7 14 29 -24z"/>
<path d="M3042 2363 c-19 -79 -20 -93 -8 -144 23 -96 43 -119 131 -149 68 -23
85 -36 85 -62 0 -18 -2 -18 -42 5 -24 14 -58 27 -75 31 l-33 6 0 -71 c0 -63
-10 -105 -30 -119 -3 -3 -21 -26 -39 -52 -17 -27 -36 -48 -41 -48 -14 0 -14
-1 28 86 47 99 48 161 7 265 -16 38 -31 69 -35 69 -11 0 -90 -169 -110 -234
-66 -218 -68 -239 -44 -376 8 -50 14 -103 12 -118 -3 -26 -8 -12 -49 153 -21
82 -29 74 -100 -95 -49 -116 -53 -131 -53 -208 l-1 -83 -18 43 c-21 50 -18 93
18 206 13 39 20 72 16 72 -4 0 -33 -26 -64 -59 l-57 -59 0 -149 c0 -142 1
-151 23 -170 48 -44 85 -55 176 -51 193 8 290 96 449 409 43 85 106 206 139
269 83 155 103 221 103 332 0 145 -35 202 -129 214 -97 11 -148 45 -207 134
-15 22 -28 40 -29 40 -2 0 -12 -39 -23 -87z"/>
</g>
</svg>
